<?xml version="1.0" standalone="no"?>
<!DOCTYPE svg PUBLIC "-//W3C//DTD SVG 20010904//EN"
 "http://www.w3.org/TR/2001/REC-SVG-20010904/DTD/svg10.dtd">
<svg version="1.0" xmlns="http://www.w3.org/2000/svg"
 width="1024.000000pt" height="1024.000000pt" viewBox="0 0 1024.000000 1024.000000"
 preserveAspectRatio="xMidYMid meet">
<metadata>
Created by potrace 1.11, written by Peter Selinger 2001-2013
</metadata>
<g transform="translate(0.000000,1024.000000) scale(0.100000,-0.100000)"
fill="#000000" stroke="none">
<path d="M6190 9460 c-137 -15 -186 -22 -201 -26 -9 -3 -33 -7 -52 -9 -43 -6
-210 -42 -252 -55 -16 -5 -74 -23 -129 -40 -153 -47 -249 -87 -429 -176 -98
-49 -224 -120 -237 -134 -3 -4 -23 -17 -45 -30 -246 -147 -530 -408 -738 -677
-132 -171 -284 -430 -385 -658 -46 -102 -108 -288 -143 -429 -64 -258 -88
-466 -87 -751 0 -110 4 -231 9 -270 5 -38 11 -88 14 -110 3 -22 10 -67 15
-100 6 -33 13 -73 16 -90 9 -49 43 -184 70 -274 l26 -84 -1405 -1406 c-1475
-1477 -1431 -1430 -1457 -1543 -6 -26 -10 -323 -10 -759 0 -629 2 -722 16
-770 24 -79 46 -118 102 -174 61 -61 138 -102 217 -114 34 -5 496 -8 1060 -7
943 2 1003 3 1050 21 109 40 206 132 247 235 22 53 23 70 26 443 l3 387 357 1
c196 0 366 2 377 4 11 2 35 7 53 10 80 15 181 91 238 180 55 87 57 107 60 510
1 204 3 373 3 376 1 4 155 7 344 8 188 0 356 3 372 6 40 8 123 47 161 76 17
13 126 132 244 264 156 176 218 240 234 239 21 -1 91 -9 173 -20 146 -19 566
-26 673 -10 19 2 55 7 80 10 25 3 68 8 95 12 40 5 165 29 255 49 326 72 713
251 992 457 154 114 260 203 367 309 105 104 265 283 285 318 5 9 18 25 29 36
23 25 175 253 212 320 163 290 273 595 325 905 12 69 23 136 26 150 20 119 26
542 10 725 -4 55 -10 103 -12 106 -1 3 -6 28 -9 55 -39 313 -185 737 -344 999
-23 37 -41 69 -41 71 0 7 -125 190 -160 234 -19 24 -42 53 -50 64 -207 264
-542 562 -831 737 -103 62 -336 176 -444 218 -127 48 -342 112 -430 127 -16 2
-37 7 -46 10 -9 2 -32 7 -50 9 -19 3 -45 7 -58 10 -13 2 -46 7 -75 10 -28 4
-64 8 -81 11 -51 9 -566 12 -635 4z m1294 -1369 c307 -73 536 -306 612 -622
13 -54 13 -266 -1 -336 -48 -249 -230 -476 -468 -582 -103 -47 -198 -65 -332
-65 -205 1 -339 45 -494 163 -140 106 -245 260 -293 427 -18 65 -22 104 -22
219 -1 154 14 229 64 342 71 157 226 317 381 393 158 78 380 102 553 61z"/>
</g>
</svg>
